<?xml version="1.0" encoding="iso-8859-1"?>
<!-- Generator: Adobe Illustrator 19.0.0, SVG Export Plug-In . SVG Version: 6.00 Build 0)  -->
<svg version="1.1" id="Layer_1" xmlns="http://www.w3.org/2000/svg" xmlns:xlink="http://www.w3.org/1999/xlink" x="0px" y="0px"
	 viewBox="0 0 300.999 300.999" style="enable-background:new 0 0 300.999 300.999;" xml:space="preserve">
<g id="XMLID_1537_">
	<g>
		<g>
			<circle cx="163.25" cy="58.467" r="19.216"/>
			<path d="M219.669,105.197c5.12,0,9.272-4.155,9.272-9.272V65.027c6.717-3.4,11.335-10.365,11.335-18.394
				c0-11.363-9.244-20.607-20.607-20.607s-20.607,9.244-20.607,20.607c0,8.028,4.618,14.995,11.335,18.394v21.48
				c-37.658-0.589-16.3-0.445-71.958-0.445c-12.038,0-21.88,9.794-21.941,21.831l-0.343,68.115
				c-0.026,5.121,4.104,9.293,9.225,9.319c0.016,0,0.032,0,0.048,0c5.099,0,9.245-4.12,9.27-9.225l0.343-68.115c0,0,0-0.001,0-0.001
				c0.006-1.07,0.876-1.932,1.946-1.929c1.07,0.003,1.935,0.872,1.934,1.941c-0.015,28.185-0.201,89.605-0.201,155.848
				c0,6.145,4.981,11.126,11.126,11.126c6.145,0,11.126-4.981,11.126-11.126v-88.931h4.803v88.931
				c0,6.145,4.981,11.126,11.126,11.126s11.126-4.981,11.126-11.126l0.005-159.142l31.492,0.492
				C219.573,105.196,219.621,105.197,219.669,105.197z M212.323,52.826c-1.414-1.674-2.27-3.834-2.27-6.192
				c0-5.302,4.314-9.616,9.616-9.616s9.617,4.314,9.617,9.616c0,2.358-0.857,4.518-2.27,6.192c-1.695-2.204-4.351-3.631-7.346-3.631
				C216.674,49.195,214.018,50.622,212.323,52.826z"/>
			<circle cx="47.093" cy="58.467" r="19.216"/>
			<path d="M124.119,46.634c0-11.363-9.244-20.607-20.607-20.607s-20.607,9.244-20.607,20.607c0,8.028,4.618,14.995,11.335,18.394
				v21.48c-37.658-0.589-16.3-0.445-71.958-0.445c-12.038,0-21.88,9.793-21.941,21.831L0,176.008
				c-0.026,5.121,4.105,9.293,9.225,9.318c0.016,0,0.032,0,0.047,0c5.099,0,9.245-4.12,9.27-9.225l0.343-68.115
				c0.005-1.07,0.876-1.934,1.946-1.931c1.07,0.003,1.935,0.871,1.935,1.941c-0.005,89.27-0.202,11.266-0.202,155.849
				c0,6.145,4.981,11.126,11.126,11.126c6.145,0,11.126-4.981,11.126-11.126v-88.93h4.803v88.931
				c0,6.145,4.981,11.126,11.126,11.126s11.126-4.981,11.126-11.126l0.005-159.142l31.492,0.492
				c0.048,0.001,0.096,0.001,0.145,0.001c5.12,0,9.271-4.155,9.271-9.272V65.027C119.501,61.628,124.119,54.662,124.119,46.634z
				 M110.859,52.826c-1.695-2.204-4.351-3.631-7.346-3.631s-5.651,1.426-7.346,3.631c-1.414-1.674-2.27-3.834-2.27-6.192
				c0-5.302,4.314-9.616,9.616-9.616s9.616,4.314,9.616,9.616C113.129,48.992,112.273,51.151,110.859,52.826z"/>
			<path d="M230.325,224.652c3.243-0.247,34.816-2.66,40.564-3.099c3.905-0.298,7.076-2.92,8.265-6.407l4.844-66.991
				c0.428-6.5-4.492-12.116-10.992-12.547l-20.999-1.393c-6.502-0.432-12.122,4.489-12.553,10.991l-0.875,13.186l13.723-12.082
				l-14.279,21.317l-27.372-0.1c-0.01,0-0.02,0-0.03,0c-4.356,0-7.896,3.524-7.912,7.884c-0.016,4.371,3.514,7.926,7.884,7.942
				l31.613,0.116c0.01,0,0.019,0,0.029,0c2.639,0,5.105-1.316,6.574-3.509l16.641-24.842l-10.066,29.246
				c-1.489,4.326-5.542,7.042-9.876,7.033c-4.199-0.019-2.203-0.011-9.117-0.036l-0.675,10.165l19.673,2.167l-39.993,3.056
				c-6.56,0.501-10.63,7.372-7.937,13.361l22.145,49.26c2.152,4.788,7.775,6.916,12.554,4.767c4.783-2.15,6.917-7.771,4.767-12.554
				L230.325,224.652z"/>
			<circle cx="262.115" cy="108.69" r="17.465"/>
			<path d="M294.08,136.136c-3.821,0-6.919,3.097-6.919,6.919v83.486H253.49c-3.821,0-6.919,3.097-6.919,6.919
				s3.097,6.919,6.919,6.919h33.671v27.675c0,3.821,3.097,6.919,6.919,6.919s6.919-3.097,6.919-6.919V143.054
				C300.999,139.233,297.901,136.136,294.08,136.136z"/>
		</g>
	</g>
</g>
<g>
</g>
<g>
</g>
<g>
</g>
<g>
</g>
<g>
</g>
<g>
</g>
<g>
</g>
<g>
</g>
<g>
</g>
<g>
</g>
<g>
</g>
<g>
</g>
<g>
</g>
<g>
</g>
<g>
</g>
</svg>
